<svg width="22" height="18" viewBox="0 0 22 18" fill="none" xmlns="http://www.w3.org/2000/svg">
<path fill-rule="evenodd" clip-rule="evenodd" d="M12.7 17.4C12.5636 17.4 12.5544 17.2031 12.6872 17.172C16.5345 16.2731 19.3999 12.8212 19.3999 8.70001C19.3999 4.5788 16.5345 1.12694 12.6872 0.228009C12.5544 0.196977 12.5636 0 12.7 0C17.5049 0 21.3999 3.89511 21.3999 8.70001C21.3999 13.5049 17.5049 17.4 12.7 17.4Z" fill="#695346"/>
<path fill-rule="evenodd" clip-rule="evenodd" d="M8.7 17.4C13.5049 17.4 17.4 13.5049 17.4 8.7C17.4 3.89512 13.5049 0 8.7 0C3.89512 0 0 3.89512 0 8.7C0 13.5049 3.89512 17.4 8.7 17.4ZM9.68615 2.47692C9.68615 2.21353 9.47263 2 9.20923 2C8.94583 2 8.73231 2.21353 8.73231 2.47692V3.48825C8.34428 3.53257 7.99351 3.64059 7.68 3.81231C7.25744 4.03914 6.92718 4.36318 6.68923 4.78443C6.45538 5.20105 6.33846 5.69406 6.33846 6.26344C6.33846 6.85597 6.44718 7.34666 6.66462 7.73551C6.88615 8.12436 7.1959 8.45071 7.59385 8.71457C7.9918 8.9738 8.45538 9.2122 8.98462 9.42977C9.32513 9.56865 9.5959 9.71447 9.79692 9.86723C10.0021 10.02 10.1477 10.1936 10.2338 10.388C10.3241 10.5824 10.3692 10.8116 10.3692 11.0754C10.3692 11.3347 10.32 11.5661 10.2215 11.7698C10.1272 11.9689 9.98359 12.1239 9.79077 12.235C9.60205 12.3461 9.3641 12.4017 9.07692 12.4017C8.90051 12.4017 8.72615 12.3739 8.55385 12.3184C8.38154 12.2628 8.22564 12.1679 8.08615 12.0337C7.94667 11.8948 7.8359 11.7096 7.75385 11.4782C7.72387 11.3936 7.69937 11.301 7.68034 11.2004C7.61878 10.8748 7.36214 10.6033 7.03077 10.6033H6.6C6.26863 10.6033 5.99477 10.8728 6.03153 11.2021C6.07141 11.5594 6.1491 11.8759 6.26462 12.1517C6.44103 12.5683 6.67692 12.9039 6.97231 13.1585C7.27179 13.4085 7.6041 13.5891 7.96923 13.7002C8.18523 13.7659 8.40267 13.8122 8.62154 13.839V14.7262C8.62154 14.9879 8.83369 15.2 9.09538 15.2C9.35708 15.2 9.56923 14.9879 9.56923 14.7262V13.8389C9.95186 13.7939 10.2985 13.6944 10.6092 13.5405C11.0482 13.3229 11.3887 13.0058 11.6308 12.5892C11.8769 12.1725 12 11.6633 12 11.0615C12 10.4736 11.8913 9.98759 11.6738 9.60337C11.4564 9.21915 11.1508 8.89511 10.7569 8.63125C10.3631 8.36276 9.89949 8.11741 9.36615 7.89521C9.00923 7.73782 8.7282 7.58275 8.52308 7.42998C8.32205 7.27722 8.17846 7.10826 8.09231 6.92309C8.01026 6.7333 7.96923 6.51341 7.96923 6.26344C7.96923 6.00421 8.00821 5.77507 8.08615 5.57601C8.16821 5.37696 8.29538 5.21957 8.46769 5.10384C8.6441 4.98811 8.86769 4.93025 9.13846 4.93025C9.32718 4.93025 9.49538 4.96959 9.64308 5.04829C9.79487 5.12699 9.9241 5.24503 10.0308 5.40242C10.1374 5.55518 10.2195 5.74266 10.2769 5.96486C10.2908 6.01852 10.303 6.07408 10.3135 6.13152C10.3732 6.45747 10.6317 6.72867 10.9631 6.72867H11.3877C11.7191 6.72867 11.9928 6.45907 11.9547 6.12989C11.9221 5.84827 11.8654 5.58726 11.7846 5.34687C11.6533 4.93951 11.4626 4.59695 11.2123 4.3192C10.9662 4.04145 10.6687 3.83083 10.32 3.68732C10.1234 3.60282 9.91212 3.54241 9.68615 3.50612V2.47692Z" fill="#695346"/>
</svg>
