<svg width="16" height="16" viewBox="0 0 16 16" fill="none" xmlns="http://www.w3.org/2000/svg">
<path d="M7.23915 1.34164C7.47864 0.604591 8.52136 0.604592 8.76085 1.34164L10.0655 5.35704C10.1726 5.68666 10.4798 5.90983 10.8264 5.90983H15.0484C15.8234 5.90983 16.1456 6.90152 15.5186 7.35704L12.1029 9.8387C11.8226 10.0424 11.7052 10.4035 11.8123 10.7331L13.117 14.7485C13.3565 15.4856 12.5129 16.0985 11.8859 15.643L8.47023 13.1613C8.18984 12.9576 7.81016 12.9576 7.52977 13.1613L4.11407 15.643C3.48709 16.0985 2.64351 15.4856 2.88299 14.7485L4.18768 10.7331C4.29478 10.4035 4.17745 10.0424 3.89706 9.8387L0.481353 7.35704C-0.145618 6.90152 0.176603 5.90983 0.951581 5.90983H5.17363C5.52021 5.90983 5.82737 5.68666 5.93447 5.35704L7.23915 1.34164Z" fill="#FFC71E"/>
</svg>
